<svg width="80" height="38" viewBox="0 0 80 38" fill="none" xmlns="http://www.w3.org/2000/svg">
<g clip-path="url(#clip0_70_16)">
<path d="M32 8H36V4H32V8ZM38 20H42V16H38V20ZM32 20H36V16H32V20ZM32 14H36V10H32V14ZM38 14H42V10H38V14ZM44 4V8H48V4H44ZM38 8H42V4H38V8ZM44 14H48V10H44V14ZM44 20H48V16H44V20Z" fill="white"/>
</g>
<path d="M20.9395 32.8438C20.9395 32.6445 20.9082 32.4688 20.8457 32.3164C20.7871 32.1602 20.6816 32.0195 20.5293 31.8945C20.3809 31.7695 20.1738 31.6504 19.9082 31.5371C19.6465 31.4238 19.3145 31.3086 18.9121 31.1914C18.4902 31.0664 18.1094 30.9277 17.7695 30.7754C17.4297 30.6191 17.1387 30.4414 16.8965 30.2422C16.6543 30.043 16.4688 29.8145 16.3398 29.5566C16.2109 29.2988 16.1465 29.0039 16.1465 28.6719C16.1465 28.3398 16.2148 28.0332 16.3516 27.752C16.4883 27.4707 16.6836 27.2266 16.9375 27.0195C17.1953 26.8086 17.502 26.6445 17.8574 26.5273C18.2129 26.4102 18.6094 26.3516 19.0469 26.3516C19.6875 26.3516 20.2305 26.4746 20.6758 26.7207C21.125 26.9629 21.4668 27.2812 21.7012 27.6758C21.9355 28.0664 22.0527 28.4844 22.0527 28.9297H20.9277C20.9277 28.6094 20.8594 28.3262 20.7227 28.0801C20.5859 27.8301 20.3789 27.6348 20.1016 27.4941C19.8242 27.3496 19.4727 27.2773 19.0469 27.2773C18.6445 27.2773 18.3125 27.3379 18.0508 27.459C17.7891 27.5801 17.5938 27.7441 17.4648 27.9512C17.3398 28.1582 17.2773 28.3945 17.2773 28.6602C17.2773 28.8398 17.3145 29.0039 17.3887 29.1523C17.4668 29.2969 17.5859 29.4316 17.7461 29.5566C17.9102 29.6816 18.1172 29.7969 18.3672 29.9023C18.6211 30.0078 18.9238 30.1094 19.2754 30.207C19.7598 30.3438 20.1777 30.4961 20.5293 30.6641C20.8809 30.832 21.1699 31.0215 21.3965 31.2324C21.627 31.4395 21.7969 31.6758 21.9062 31.9414C22.0195 32.2031 22.0762 32.5 22.0762 32.832C22.0762 33.1797 22.0059 33.4941 21.8652 33.7754C21.7246 34.0566 21.5234 34.2969 21.2617 34.4961C21 34.6953 20.6855 34.8496 20.3184 34.959C19.9551 35.0645 19.5488 35.1172 19.0996 35.1172C18.7051 35.1172 18.3164 35.0625 17.9336 34.9531C17.5547 34.8438 17.209 34.6797 16.8965 34.4609C16.5879 34.2422 16.3398 33.9727 16.1523 33.6523C15.9688 33.3281 15.877 32.9531 15.877 32.5273H17.002C17.002 32.8203 17.0586 33.0723 17.1719 33.2832C17.2852 33.4902 17.4395 33.6621 17.6348 33.7988C17.834 33.9355 18.0586 34.0371 18.3086 34.1035C18.5625 34.166 18.8262 34.1973 19.0996 34.1973C19.4941 34.1973 19.8281 34.1426 20.1016 34.0332C20.375 33.9238 20.582 33.7676 20.7227 33.5645C20.8672 33.3613 20.9395 33.1211 20.9395 32.8438ZM23.0664 31.9004V31.7656C23.0664 31.3086 23.1328 30.8848 23.2656 30.4941C23.3984 30.0996 23.5898 29.7578 23.8398 29.4688C24.0898 29.1758 24.3926 28.9492 24.748 28.7891C25.1035 28.625 25.502 28.543 25.9434 28.543C26.3887 28.543 26.7891 28.625 27.1445 28.7891C27.5039 28.9492 27.8086 29.1758 28.0586 29.4688C28.3125 29.7578 28.5059 30.0996 28.6387 30.4941C28.7715 30.8848 28.8379 31.3086 28.8379 31.7656V31.9004C28.8379 32.3574 28.7715 32.7812 28.6387 33.1719C28.5059 33.5625 28.3125 33.9043 28.0586 34.1973C27.8086 34.4863 27.5059 34.7129 27.1504 34.877C26.7988 35.0371 26.4004 35.1172 25.9551 35.1172C25.5098 35.1172 25.1094 35.0371 24.7539 34.877C24.3984 34.7129 24.0938 34.4863 23.8398 34.1973C23.5898 33.9043 23.3984 33.5625 23.2656 33.1719C23.1328 32.7812 23.0664 32.3574 23.0664 31.9004ZM24.1504 31.7656V31.9004C24.1504 32.2168 24.1875 32.5156 24.2617 32.7969C24.3359 33.0742 24.4473 33.3203 24.5957 33.5352C24.748 33.75 24.9375 33.9199 25.1641 34.0449C25.3906 34.166 25.6543 34.2266 25.9551 34.2266C26.252 34.2266 26.5117 34.166 26.7344 34.0449C26.9609 33.9199 27.1484 33.75 27.2969 33.5352C27.4453 33.3203 27.5566 33.0742 27.6309 32.7969C27.709 32.5156 27.748 32.2168 27.748 31.9004V31.7656C27.748 31.4531 27.709 31.1582 27.6309 30.8809C27.5566 30.5996 27.4434 30.3516 27.291 30.1367C27.1426 29.918 26.9551 29.7461 26.7285 29.6211C26.5059 29.4961 26.2441 29.4336 25.9434 29.4336C25.6465 29.4336 25.3848 29.4961 25.1582 29.6211C24.9355 29.7461 24.748 29.918 24.5957 30.1367C24.4473 30.3516 24.3359 30.5996 24.2617 30.8809C24.1875 31.1582 24.1504 31.4531 24.1504 31.7656ZM31.375 26V35H30.2852V26H31.375ZM36.9941 33.5352V28.6602H38.084V35H37.0469L36.9941 33.5352ZM37.1992 32.1992L37.6504 32.1875C37.6504 32.6094 37.6055 33 37.5156 33.3594C37.4297 33.7148 37.2891 34.0234 37.0938 34.2852C36.8984 34.5469 36.6426 34.752 36.3262 34.9004C36.0098 35.0449 35.625 35.1172 35.1719 35.1172C34.8633 35.1172 34.5801 35.0723 34.3223 34.9824C34.0684 34.8926 33.8496 34.7539 33.666 34.5664C33.4824 34.3789 33.3398 34.1348 33.2383 33.834C33.1406 33.5332 33.0918 33.1719 33.0918 32.75V28.6602H34.1758V32.7617C34.1758 33.0469 34.207 33.2832 34.2695 33.4707C34.3359 33.6543 34.4238 33.8008 34.5332 33.9102C34.6465 34.0156 34.7715 34.0898 34.9082 34.1328C35.0488 34.1758 35.1934 34.1973 35.3418 34.1973C35.8027 34.1973 36.168 34.1094 36.4375 33.9336C36.707 33.7539 36.9004 33.5137 37.0176 33.2129C37.1387 32.9082 37.1992 32.5703 37.1992 32.1992ZM42.2734 34.2266C42.5312 34.2266 42.7695 34.1738 42.9883 34.0684C43.207 33.9629 43.3867 33.8184 43.5273 33.6348C43.668 33.4473 43.748 33.2344 43.7676 32.9961H44.7988C44.7793 33.3711 44.6523 33.7207 44.418 34.0449C44.1875 34.3652 43.8848 34.625 43.5098 34.8242C43.1348 35.0195 42.7227 35.1172 42.2734 35.1172C41.7969 35.1172 41.3809 35.0332 41.0254 34.8652C40.6738 34.6973 40.3809 34.4668 40.1465 34.1738C39.916 33.8809 39.7422 33.5449 39.625 33.166C39.5117 32.7832 39.4551 32.3789 39.4551 31.9531V31.707C39.4551 31.2812 39.5117 30.8789 39.625 30.5C39.7422 30.1172 39.916 29.7793 40.1465 29.4863C40.3809 29.1934 40.6738 28.9629 41.0254 28.7949C41.3809 28.627 41.7969 28.543 42.2734 28.543C42.7695 28.543 43.2031 28.6445 43.5742 28.8477C43.9453 29.0469 44.2363 29.3203 44.4473 29.668C44.6621 30.0117 44.7793 30.4023 44.7988 30.8398H43.7676C43.748 30.5781 43.6738 30.3418 43.5449 30.1309C43.4199 29.9199 43.248 29.752 43.0293 29.627C42.8145 29.498 42.5625 29.4336 42.2734 29.4336C41.9414 29.4336 41.6621 29.5 41.4355 29.6328C41.2129 29.7617 41.0352 29.9375 40.9023 30.1602C40.7734 30.3789 40.6797 30.623 40.6211 30.8926C40.5664 31.1582 40.5391 31.4297 40.5391 31.707V31.9531C40.5391 32.2305 40.5664 32.5039 40.6211 32.7734C40.6758 33.043 40.7676 33.2871 40.8965 33.5059C41.0293 33.7246 41.207 33.9004 41.4297 34.0332C41.6562 34.1621 41.9375 34.2266 42.2734 34.2266ZM41.6758 35.0586H42.4551L42.3848 35.3691C42.6113 35.4082 42.8164 35.502 43 35.6504C43.1875 35.7988 43.2812 36.043 43.2812 36.3828C43.2812 36.5664 43.2422 36.7324 43.1641 36.8809C43.0898 37.0332 42.9785 37.1621 42.8301 37.2676C42.6816 37.377 42.4961 37.4609 42.2734 37.5195C42.0547 37.5781 41.7988 37.6074 41.5059 37.6074L41.4648 36.9805C41.6445 36.9805 41.8066 36.9609 41.9512 36.9219C42.0996 36.8828 42.2168 36.8203 42.3027 36.7344C42.3926 36.6484 42.4375 36.5371 42.4375 36.4004C42.4375 36.2715 42.4043 36.1699 42.3379 36.0957C42.2715 36.0215 42.168 35.9648 42.0273 35.9258C41.8906 35.8906 41.7129 35.8652 41.4941 35.8496L41.6758 35.0586ZM45.7305 31.9004V31.7656C45.7305 31.3086 45.7969 30.8848 45.9297 30.4941C46.0625 30.0996 46.2539 29.7578 46.5039 29.4688C46.7539 29.1758 47.0566 28.9492 47.4121 28.7891C47.7676 28.625 48.166 28.543 48.6074 28.543C49.0527 28.543 49.4531 28.625 49.8086 28.7891C50.168 28.9492 50.4727 29.1758 50.7227 29.4688C50.9766 29.7578 51.1699 30.0996 51.3027 30.4941C51.4355 30.8848 51.502 31.3086 51.502 31.7656V31.9004C51.502 32.3574 51.4355 32.7812 51.3027 33.1719C51.1699 33.5625 50.9766 33.9043 50.7227 34.1973C50.4727 34.4863 50.1699 34.7129 49.8145 34.877C49.4629 35.0371 49.0645 35.1172 48.6191 35.1172C48.1738 35.1172 47.7734 35.0371 47.418 34.877C47.0625 34.7129 46.7578 34.4863 46.5039 34.1973C46.2539 33.9043 46.0625 33.5625 45.9297 33.1719C45.7969 32.7812 45.7305 32.3574 45.7305 31.9004ZM46.8145 31.7656V31.9004C46.8145 32.2168 46.8516 32.5156 46.9258 32.7969C47 33.0742 47.1113 33.3203 47.2598 33.5352C47.4121 33.75 47.6016 33.9199 47.8281 34.0449C48.0547 34.166 48.3184 34.2266 48.6191 34.2266C48.916 34.2266 49.1758 34.166 49.3984 34.0449C49.625 33.9199 49.8125 33.75 49.9609 33.5352C50.1094 33.3203 50.2207 33.0742 50.2949 32.7969C50.373 32.5156 50.4121 32.2168 50.4121 31.9004V31.7656C50.4121 31.4531 50.373 31.1582 50.2949 30.8809C50.2207 30.5996 50.1074 30.3516 49.9551 30.1367C49.8066 29.918 49.6191 29.7461 49.3926 29.6211C49.1699 29.4961 48.9082 29.4336 48.6074 29.4336C48.3105 29.4336 48.0488 29.4961 47.8223 29.6211C47.5996 29.7461 47.4121 29.918 47.2598 30.1367C47.1113 30.3516 47 30.5996 46.9258 30.8809C46.8516 31.1582 46.8145 31.4531 46.8145 31.7656ZM49.9082 26.1172L50.6406 26.1816C50.6406 26.4668 50.584 26.7168 50.4707 26.9316C50.3574 27.1465 50.2051 27.3125 50.0137 27.4297C49.8262 27.5469 49.6133 27.6055 49.375 27.6055C49.1758 27.6055 49.0117 27.5781 48.8828 27.5234C48.7539 27.4648 48.6387 27.4004 48.5371 27.3301C48.4355 27.2559 48.3281 27.1914 48.2148 27.1367C48.1055 27.0781 47.9688 27.0488 47.8047 27.0488C47.6406 27.0488 47.502 27.1113 47.3887 27.2363C47.2793 27.3613 47.2246 27.5156 47.2246 27.6992L46.4922 27.6641C46.4922 27.3789 46.5469 27.1289 46.6562 26.9141C46.7695 26.6953 46.9219 26.5254 47.1133 26.4043C47.3047 26.2793 47.5176 26.2168 47.752 26.2168C47.9199 26.2168 48.0664 26.2461 48.1914 26.3047C48.3203 26.3594 48.4414 26.4238 48.5547 26.498C48.668 26.5684 48.7852 26.6328 48.9062 26.6914C49.0273 26.7461 49.166 26.7734 49.3223 26.7734C49.4863 26.7734 49.625 26.7109 49.7383 26.5859C49.8516 26.457 49.9082 26.3008 49.9082 26.1172ZM55.4922 35.1172C55.0508 35.1172 54.6504 35.043 54.291 34.8945C53.9355 34.7422 53.6289 34.5293 53.3711 34.2559C53.1172 33.9824 52.9219 33.6582 52.7852 33.2832C52.6484 32.9082 52.5801 32.498 52.5801 32.0527V31.8066C52.5801 31.291 52.6562 30.832 52.8086 30.4297C52.9609 30.0234 53.168 29.6797 53.4297 29.3984C53.6914 29.1172 53.9883 28.9043 54.3203 28.7598C54.6523 28.6152 54.9961 28.543 55.3516 28.543C55.8047 28.543 56.1953 28.6211 56.5234 28.7773C56.8555 28.9336 57.127 29.1523 57.3379 29.4336C57.5488 29.7109 57.7051 30.0391 57.8066 30.418C57.9082 30.793 57.959 31.2031 57.959 31.6484V32.1348H53.2246V31.25H56.875V31.168C56.8594 30.8867 56.8008 30.6133 56.6992 30.3477C56.6016 30.082 56.4453 29.8633 56.2305 29.6914C56.0156 29.5195 55.7227 29.4336 55.3516 29.4336C55.1055 29.4336 54.8789 29.4863 54.6719 29.5918C54.4648 29.6934 54.2871 29.8457 54.1387 30.0488C53.9902 30.252 53.875 30.5 53.793 30.793C53.7109 31.0859 53.6699 31.4238 53.6699 31.8066V32.0527C53.6699 32.3535 53.7109 32.6367 53.793 32.9023C53.8789 33.1641 54.002 33.3945 54.1621 33.5938C54.3262 33.793 54.5234 33.9492 54.7539 34.0625C54.9883 34.1758 55.2539 34.2324 55.5508 34.2324C55.9336 34.2324 56.2578 34.1543 56.5234 33.998C56.7891 33.8418 57.0215 33.6328 57.2207 33.3711L57.877 33.8926C57.7402 34.0996 57.5664 34.2969 57.3555 34.4844C57.1445 34.6719 56.8848 34.8242 56.5762 34.9414C56.2715 35.0586 55.9102 35.1172 55.4922 35.1172ZM62.916 33.3184C62.916 33.1621 62.8809 33.0176 62.8105 32.8848C62.7441 32.748 62.6055 32.625 62.3945 32.5156C62.1875 32.4023 61.875 32.3047 61.457 32.2227C61.1055 32.1484 60.7871 32.0605 60.502 31.959C60.2207 31.8574 59.9805 31.7344 59.7812 31.5898C59.5859 31.4453 59.4355 31.2754 59.3301 31.0801C59.2246 30.8848 59.1719 30.6562 59.1719 30.3945C59.1719 30.1445 59.2266 29.9082 59.3359 29.6855C59.4492 29.4629 59.6074 29.2656 59.8105 29.0938C60.0176 28.9219 60.2656 28.7871 60.5547 28.6895C60.8438 28.5918 61.166 28.543 61.5215 28.543C62.0293 28.543 62.4629 28.6328 62.8223 28.8125C63.1816 28.9922 63.457 29.2324 63.6484 29.5332C63.8398 29.8301 63.9355 30.1602 63.9355 30.5234H62.8516C62.8516 30.3477 62.7988 30.1777 62.6934 30.0137C62.5918 29.8457 62.4414 29.707 62.2422 29.5977C62.0469 29.4883 61.8066 29.4336 61.5215 29.4336C61.2207 29.4336 60.9766 29.4805 60.7891 29.5742C60.6055 29.6641 60.4707 29.7793 60.3848 29.9199C60.3027 30.0605 60.2617 30.209 60.2617 30.3652C60.2617 30.4824 60.2812 30.5879 60.3203 30.6816C60.3633 30.7715 60.4375 30.8555 60.543 30.9336C60.6484 31.0078 60.7969 31.0781 60.9883 31.1445C61.1797 31.2109 61.4238 31.2773 61.7207 31.3438C62.2402 31.4609 62.668 31.6016 63.0039 31.7656C63.3398 31.9297 63.5898 32.1309 63.7539 32.3691C63.918 32.6074 64 32.8965 64 33.2363C64 33.5137 63.9414 33.7676 63.8242 33.998C63.7109 34.2285 63.5449 34.4277 63.3262 34.5957C63.1113 34.7598 62.8535 34.8887 62.5527 34.9824C62.2559 35.0723 61.9219 35.1172 61.5508 35.1172C60.9922 35.1172 60.5195 35.0176 60.1328 34.8184C59.7461 34.6191 59.4531 34.3613 59.2539 34.0449C59.0547 33.7285 58.9551 33.3945 58.9551 33.043H60.0449C60.0605 33.3398 60.1465 33.5762 60.3027 33.752C60.459 33.9238 60.6504 34.0469 60.877 34.1211C61.1035 34.1914 61.3281 34.2266 61.5508 34.2266C61.8477 34.2266 62.0957 34.1875 62.2949 34.1094C62.498 34.0312 62.6523 33.9238 62.7578 33.7871C62.8633 33.6504 62.916 33.4941 62.916 33.3184Z" fill="white" fill-opacity="0.9"/>
<defs>
<clipPath id="clip0_70_16">
<rect width="24" height="24" fill="white" transform="translate(28)"/>
</clipPath>
</defs>
</svg>
