<svg width="400" height="38" viewBox="0 0 400 38" fill="none" xmlns="http://www.w3.org/2000/svg">
<path d="M333.85 26.4688V35H332.713L328.418 28.4199V35H327.287V26.4688H328.418L332.73 33.0664V26.4688H333.85ZM335.402 31.9004V31.7656C335.402 31.3086 335.469 30.8848 335.602 30.4941C335.734 30.0996 335.926 29.7578 336.176 29.4688C336.426 29.1758 336.729 28.9492 337.084 28.7891C337.439 28.625 337.838 28.543 338.279 28.543C338.725 28.543 339.125 28.625 339.48 28.7891C339.84 28.9492 340.145 29.1758 340.395 29.4688C340.648 29.7578 340.842 30.0996 340.975 30.4941C341.107 30.8848 341.174 31.3086 341.174 31.7656V31.9004C341.174 32.3574 341.107 32.7812 340.975 33.1719C340.842 33.5625 340.648 33.9043 340.395 34.1973C340.145 34.4863 339.842 34.7129 339.486 34.877C339.135 35.0371 338.736 35.1172 338.291 35.1172C337.846 35.1172 337.445 35.0371 337.09 34.877C336.734 34.7129 336.43 34.4863 336.176 34.1973C335.926 33.9043 335.734 33.5625 335.602 33.1719C335.469 32.7812 335.402 32.3574 335.402 31.9004ZM336.486 31.7656V31.9004C336.486 32.2168 336.523 32.5156 336.598 32.7969C336.672 33.0742 336.783 33.3203 336.932 33.5352C337.084 33.75 337.273 33.9199 337.5 34.0449C337.727 34.166 337.99 34.2266 338.291 34.2266C338.588 34.2266 338.848 34.166 339.07 34.0449C339.297 33.9199 339.484 33.75 339.633 33.5352C339.781 33.3203 339.893 33.0742 339.967 32.7969C340.045 32.5156 340.084 32.2168 340.084 31.9004V31.7656C340.084 31.4531 340.045 31.1582 339.967 30.8809C339.893 30.5996 339.779 30.3516 339.627 30.1367C339.479 29.918 339.291 29.7461 339.064 29.6211C338.842 29.4961 338.58 29.4336 338.279 29.4336C337.982 29.4336 337.721 29.4961 337.494 29.6211C337.271 29.7461 337.084 29.918 336.932 30.1367C336.783 30.3516 336.672 30.5996 336.598 30.8809C336.523 31.1582 336.486 31.4531 336.486 31.7656ZM345.188 28.6602V29.4922H341.76V28.6602H345.188ZM342.92 27.1191H344.004V33.4297C344.004 33.6445 344.037 33.8066 344.104 33.916C344.17 34.0254 344.256 34.0977 344.361 34.1328C344.467 34.168 344.58 34.1855 344.701 34.1855C344.791 34.1855 344.885 34.1777 344.982 34.1621C345.084 34.1426 345.16 34.127 345.211 34.1152L345.217 35C345.131 35.0273 345.018 35.0527 344.877 35.0762C344.74 35.1035 344.574 35.1172 344.379 35.1172C344.113 35.1172 343.869 35.0645 343.646 34.959C343.424 34.8535 343.246 34.6777 343.113 34.4316C342.984 34.1816 342.92 33.8457 342.92 33.4238V27.1191ZM347.637 28.6602V35H346.547V28.6602H347.637ZM346.465 26.9785C346.465 26.8027 346.518 26.6543 346.623 26.5332C346.732 26.4121 346.893 26.3516 347.104 26.3516C347.311 26.3516 347.469 26.4121 347.578 26.5332C347.691 26.6543 347.748 26.8027 347.748 26.9785C347.748 27.1465 347.691 27.291 347.578 27.4121C347.469 27.5293 347.311 27.5879 347.104 27.5879C346.893 27.5879 346.732 27.5293 346.623 27.4121C346.518 27.291 346.465 27.1465 346.465 26.9785ZM350.824 35H349.74V28.1094C349.74 27.6289 349.834 27.2227 350.021 26.8906C350.209 26.5586 350.477 26.3066 350.824 26.1348C351.172 25.9629 351.584 25.877 352.061 25.877C352.342 25.877 352.617 25.9121 352.887 25.9824C353.156 26.0488 353.434 26.1328 353.719 26.2344L353.537 27.1484C353.357 27.0781 353.148 27.0117 352.91 26.9492C352.676 26.8828 352.418 26.8496 352.137 26.8496C351.672 26.8496 351.336 26.9551 351.129 27.166C350.926 27.373 350.824 27.6875 350.824 28.1094V35ZM352.119 28.6602V29.4922H348.738V28.6602H352.119ZM354.252 28.6602V35H353.168V28.6602H354.252ZM358.57 34.2266C358.828 34.2266 359.066 34.1738 359.285 34.0684C359.504 33.9629 359.684 33.8184 359.824 33.6348C359.965 33.4473 360.045 33.2344 360.064 32.9961H361.096C361.076 33.3711 360.949 33.7207 360.715 34.0449C360.484 34.3652 360.182 34.625 359.807 34.8242C359.432 35.0195 359.02 35.1172 358.57 35.1172C358.094 35.1172 357.678 35.0332 357.322 34.8652C356.971 34.6973 356.678 34.4668 356.443 34.1738C356.213 33.8809 356.039 33.5449 355.922 33.166C355.809 32.7832 355.752 32.3789 355.752 31.9531V31.707C355.752 31.2812 355.809 30.8789 355.922 30.5C356.039 30.1172 356.213 29.7793 356.443 29.4863C356.678 29.1934 356.971 28.9629 357.322 28.7949C357.678 28.627 358.094 28.543 358.57 28.543C359.066 28.543 359.5 28.6445 359.871 28.8477C360.242 29.0469 360.533 29.3203 360.744 29.668C360.959 30.0117 361.076 30.4023 361.096 30.8398H360.064C360.045 30.5781 359.971 30.3418 359.842 30.1309C359.717 29.9199 359.545 29.752 359.326 29.627C359.111 29.498 358.859 29.4336 358.57 29.4336C358.238 29.4336 357.959 29.5 357.732 29.6328C357.51 29.7617 357.332 29.9375 357.199 30.1602C357.07 30.3789 356.977 30.623 356.918 30.8926C356.863 31.1582 356.836 31.4297 356.836 31.707V31.9531C356.836 32.2305 356.863 32.5039 356.918 32.7734C356.973 33.043 357.064 33.2871 357.193 33.5059C357.326 33.7246 357.504 33.9004 357.727 34.0332C357.953 34.1621 358.234 34.2266 358.57 34.2266ZM366.053 33.916V30.6523C366.053 30.4023 366.002 30.1855 365.9 30.002C365.803 29.8145 365.654 29.6699 365.455 29.5684C365.256 29.4668 365.01 29.416 364.717 29.416C364.443 29.416 364.203 29.4629 363.996 29.5566C363.793 29.6504 363.633 29.7734 363.516 29.9258C363.402 30.0781 363.346 30.2422 363.346 30.418H362.262C362.262 30.1914 362.32 29.9668 362.438 29.7441C362.555 29.5215 362.723 29.3203 362.941 29.1406C363.164 28.957 363.43 28.8125 363.738 28.707C364.051 28.5977 364.398 28.543 364.781 28.543C365.242 28.543 365.648 28.6211 366 28.7773C366.355 28.9336 366.633 29.1699 366.832 29.4863C367.035 29.7988 367.137 30.1914 367.137 30.6641V33.6172C367.137 33.8281 367.154 34.0527 367.189 34.291C367.229 34.5293 367.285 34.7344 367.359 34.9062V35H366.229C366.174 34.875 366.131 34.709 366.1 34.502C366.068 34.291 366.053 34.0957 366.053 33.916ZM366.24 31.1562L366.252 31.918H365.156C364.848 31.918 364.572 31.9434 364.33 31.9941C364.088 32.041 363.885 32.1133 363.721 32.2109C363.557 32.3086 363.432 32.4316 363.346 32.5801C363.26 32.7246 363.217 32.8945 363.217 33.0898C363.217 33.2891 363.262 33.4707 363.352 33.6348C363.441 33.7988 363.576 33.9297 363.756 34.0273C363.939 34.1211 364.164 34.168 364.43 34.168C364.762 34.168 365.055 34.0977 365.309 33.957C365.562 33.8164 365.764 33.6445 365.912 33.4414C366.064 33.2383 366.146 33.041 366.158 32.8496L366.621 33.3711C366.594 33.5352 366.52 33.7168 366.398 33.916C366.277 34.1152 366.115 34.3066 365.912 34.4902C365.713 34.6699 365.475 34.8203 365.197 34.9414C364.924 35.0586 364.615 35.1172 364.271 35.1172C363.842 35.1172 363.465 35.0332 363.141 34.8652C362.82 34.6973 362.57 34.4727 362.391 34.1914C362.215 33.9062 362.127 33.5879 362.127 33.2363C362.127 32.8965 362.193 32.5977 362.326 32.3398C362.459 32.0781 362.65 31.8613 362.9 31.6895C363.15 31.5137 363.451 31.3809 363.803 31.291C364.154 31.2012 364.547 31.1562 364.98 31.1562H366.24ZM371.379 34.2266C371.637 34.2266 371.875 34.1738 372.094 34.0684C372.312 33.9629 372.492 33.8184 372.633 33.6348C372.773 33.4473 372.854 33.2344 372.873 32.9961H373.904C373.885 33.3711 373.758 33.7207 373.523 34.0449C373.293 34.3652 372.99 34.625 372.615 34.8242C372.24 35.0195 371.828 35.1172 371.379 35.1172C370.902 35.1172 370.486 35.0332 370.131 34.8652C369.779 34.6973 369.486 34.4668 369.252 34.1738C369.021 33.8809 368.848 33.5449 368.73 33.166C368.617 32.7832 368.561 32.3789 368.561 31.9531V31.707C368.561 31.2812 368.617 30.8789 368.73 30.5C368.848 30.1172 369.021 29.7793 369.252 29.4863C369.486 29.1934 369.779 28.9629 370.131 28.7949C370.486 28.627 370.902 28.543 371.379 28.543C371.875 28.543 372.309 28.6445 372.68 28.8477C373.051 29.0469 373.342 29.3203 373.553 29.668C373.768 30.0117 373.885 30.4023 373.904 30.8398H372.873C372.854 30.5781 372.779 30.3418 372.65 30.1309C372.525 29.9199 372.354 29.752 372.135 29.627C371.92 29.498 371.668 29.4336 371.379 29.4336C371.047 29.4336 370.768 29.5 370.541 29.6328C370.318 29.7617 370.141 29.9375 370.008 30.1602C369.879 30.3789 369.785 30.623 369.727 30.8926C369.672 31.1582 369.645 31.4297 369.645 31.707V31.9531C369.645 32.2305 369.672 32.5039 369.727 32.7734C369.781 33.043 369.873 33.2871 370.002 33.5059C370.135 33.7246 370.312 33.9004 370.535 34.0332C370.762 34.1621 371.043 34.2266 371.379 34.2266ZM370.781 35.0586H371.561L371.49 35.3691C371.717 35.4082 371.922 35.502 372.105 35.6504C372.293 35.7988 372.387 36.043 372.387 36.3828C372.387 36.5664 372.348 36.7324 372.27 36.8809C372.195 37.0332 372.084 37.1621 371.936 37.2676C371.787 37.377 371.602 37.4609 371.379 37.5195C371.16 37.5781 370.904 37.6074 370.611 37.6074L370.57 36.9805C370.75 36.9805 370.912 36.9609 371.057 36.9219C371.205 36.8828 371.322 36.8203 371.408 36.7344C371.498 36.6484 371.543 36.5371 371.543 36.4004C371.543 36.2715 371.51 36.1699 371.443 36.0957C371.377 36.0215 371.273 35.9648 371.133 35.9258C370.996 35.8906 370.818 35.8652 370.6 35.8496L370.781 35.0586ZM374.836 31.9004V31.7656C374.836 31.3086 374.902 30.8848 375.035 30.4941C375.168 30.0996 375.359 29.7578 375.609 29.4688C375.859 29.1758 376.162 28.9492 376.518 28.7891C376.873 28.625 377.271 28.543 377.713 28.543C378.158 28.543 378.559 28.625 378.914 28.7891C379.273 28.9492 379.578 29.1758 379.828 29.4688C380.082 29.7578 380.275 30.0996 380.408 30.4941C380.541 30.8848 380.607 31.3086 380.607 31.7656V31.9004C380.607 32.3574 380.541 32.7812 380.408 33.1719C380.275 33.5625 380.082 33.9043 379.828 34.1973C379.578 34.4863 379.275 34.7129 378.92 34.877C378.568 35.0371 378.17 35.1172 377.725 35.1172C377.279 35.1172 376.879 35.0371 376.523 34.877C376.168 34.7129 375.863 34.4863 375.609 34.1973C375.359 33.9043 375.168 33.5625 375.035 33.1719C374.902 32.7812 374.836 32.3574 374.836 31.9004ZM375.92 31.7656V31.9004C375.92 32.2168 375.957 32.5156 376.031 32.7969C376.105 33.0742 376.217 33.3203 376.365 33.5352C376.518 33.75 376.707 33.9199 376.934 34.0449C377.16 34.166 377.424 34.2266 377.725 34.2266C378.021 34.2266 378.281 34.166 378.504 34.0449C378.73 33.9199 378.918 33.75 379.066 33.5352C379.215 33.3203 379.326 33.0742 379.4 32.7969C379.479 32.5156 379.518 32.2168 379.518 31.9004V31.7656C379.518 31.4531 379.479 31.1582 379.4 30.8809C379.326 30.5996 379.213 30.3516 379.061 30.1367C378.912 29.918 378.725 29.7461 378.498 29.6211C378.275 29.4961 378.014 29.4336 377.713 29.4336C377.416 29.4336 377.154 29.4961 376.928 29.6211C376.705 29.7461 376.518 29.918 376.365 30.1367C376.217 30.3516 376.105 30.5996 376.031 30.8809C375.957 31.1582 375.92 31.4531 375.92 31.7656ZM379.014 26.1172L379.746 26.1816C379.746 26.4668 379.689 26.7168 379.576 26.9316C379.463 27.1465 379.311 27.3125 379.119 27.4297C378.932 27.5469 378.719 27.6055 378.48 27.6055C378.281 27.6055 378.117 27.5781 377.988 27.5234C377.859 27.4648 377.744 27.4004 377.643 27.3301C377.541 27.2559 377.434 27.1914 377.32 27.1367C377.211 27.0781 377.074 27.0488 376.91 27.0488C376.746 27.0488 376.607 27.1113 376.494 27.2363C376.385 27.3613 376.33 27.5156 376.33 27.6992L375.598 27.6641C375.598 27.3789 375.652 27.1289 375.762 26.9141C375.875 26.6953 376.027 26.5254 376.219 26.4043C376.41 26.2793 376.623 26.2168 376.857 26.2168C377.025 26.2168 377.172 26.2461 377.297 26.3047C377.426 26.3594 377.547 26.4238 377.66 26.498C377.773 26.5684 377.891 26.6328 378.012 26.6914C378.133 26.7461 378.271 26.7734 378.428 26.7734C378.592 26.7734 378.73 26.7109 378.844 26.5859C378.957 26.457 379.014 26.3008 379.014 26.1172ZM384.598 35.1172C384.156 35.1172 383.756 35.043 383.396 34.8945C383.041 34.7422 382.734 34.5293 382.477 34.2559C382.223 33.9824 382.027 33.6582 381.891 33.2832C381.754 32.9082 381.686 32.498 381.686 32.0527V31.8066C381.686 31.291 381.762 30.832 381.914 30.4297C382.066 30.0234 382.273 29.6797 382.535 29.3984C382.797 29.1172 383.094 28.9043 383.426 28.7598C383.758 28.6152 384.102 28.543 384.457 28.543C384.91 28.543 385.301 28.6211 385.629 28.7773C385.961 28.9336 386.232 29.1523 386.443 29.4336C386.654 29.7109 386.811 30.0391 386.912 30.418C387.014 30.793 387.064 31.2031 387.064 31.6484V32.1348H382.33V31.25H385.98V31.168C385.965 30.8867 385.906 30.6133 385.805 30.3477C385.707 30.082 385.551 29.8633 385.336 29.6914C385.121 29.5195 384.828 29.4336 384.457 29.4336C384.211 29.4336 383.984 29.4863 383.777 29.5918C383.57 29.6934 383.393 29.8457 383.244 30.0488C383.096 30.252 382.98 30.5 382.898 30.793C382.816 31.0859 382.775 31.4238 382.775 31.8066V32.0527C382.775 32.3535 382.816 32.6367 382.898 32.9023C382.984 33.1641 383.107 33.3945 383.268 33.5938C383.432 33.793 383.629 33.9492 383.859 34.0625C384.094 34.1758 384.359 34.2324 384.656 34.2324C385.039 34.2324 385.363 34.1543 385.629 33.998C385.895 33.8418 386.127 33.6328 386.326 33.3711L386.982 33.8926C386.846 34.0996 386.672 34.2969 386.461 34.4844C386.25 34.6719 385.99 34.8242 385.682 34.9414C385.377 35.0586 385.016 35.1172 384.598 35.1172ZM392.021 33.3184C392.021 33.1621 391.986 33.0176 391.916 32.8848C391.85 32.748 391.711 32.625 391.5 32.5156C391.293 32.4023 390.98 32.3047 390.562 32.2227C390.211 32.1484 389.893 32.0605 389.607 31.959C389.326 31.8574 389.086 31.7344 388.887 31.5898C388.691 31.4453 388.541 31.2754 388.436 31.0801C388.33 30.8848 388.277 30.6562 388.277 30.3945C388.277 30.1445 388.332 29.9082 388.441 29.6855C388.555 29.4629 388.713 29.2656 388.916 29.0938C389.123 28.9219 389.371 28.7871 389.66 28.6895C389.949 28.5918 390.271 28.543 390.627 28.543C391.135 28.543 391.568 28.6328 391.928 28.8125C392.287 28.9922 392.562 29.2324 392.754 29.5332C392.945 29.8301 393.041 30.1602 393.041 30.5234H391.957C391.957 30.3477 391.904 30.1777 391.799 30.0137C391.697 29.8457 391.547 29.707 391.348 29.5977C391.152 29.4883 390.912 29.4336 390.627 29.4336C390.326 29.4336 390.082 29.4805 389.895 29.5742C389.711 29.6641 389.576 29.7793 389.49 29.9199C389.408 30.0605 389.367 30.209 389.367 30.3652C389.367 30.4824 389.387 30.5879 389.426 30.6816C389.469 30.7715 389.543 30.8555 389.648 30.9336C389.754 31.0078 389.902 31.0781 390.094 31.1445C390.285 31.2109 390.529 31.2773 390.826 31.3438C391.346 31.4609 391.773 31.6016 392.109 31.7656C392.445 31.9297 392.695 32.1309 392.859 32.3691C393.023 32.6074 393.105 32.8965 393.105 33.2363C393.105 33.5137 393.047 33.7676 392.93 33.998C392.816 34.2285 392.65 34.4277 392.432 34.5957C392.217 34.7598 391.959 34.8887 391.658 34.9824C391.361 35.0723 391.027 35.1172 390.656 35.1172C390.098 35.1172 389.625 35.0176 389.238 34.8184C388.852 34.6191 388.559 34.3613 388.359 34.0449C388.16 33.7285 388.061 33.3945 388.061 33.043H389.15C389.166 33.3398 389.252 33.5762 389.408 33.752C389.564 33.9238 389.756 34.0469 389.982 34.1211C390.209 34.1914 390.434 34.2266 390.656 34.2266C390.953 34.2266 391.201 34.1875 391.4 34.1094C391.604 34.0312 391.758 33.9238 391.863 33.7871C391.969 33.6504 392.021 33.4941 392.021 33.3184Z" fill="white" fill-opacity="0.9"/>
<path d="M352 19V17H354V10C354 8.61667 354.417 7.38733 355.25 6.312C356.083 5.23733 357.167 4.53333 358.5 4.2V3.5C358.5 3.08333 358.646 2.72933 358.938 2.438C359.229 2.146 359.583 2 360 2C360.417 2 360.771 2.146 361.062 2.438C361.354 2.72933 361.5 3.08333 361.5 3.5V4.2C362.833 4.53333 363.917 5.23733 364.75 6.312C365.583 7.38733 366 8.61667 366 10V17H368V19H352ZM360 22C359.45 22 358.979 21.8043 358.588 21.413C358.196 21.021 358 20.55 358 20H362C362 20.55 361.804 21.021 361.413 21.413C361.021 21.8043 360.55 22 360 22Z" fill="white"/>
<path d="M276 11C276.283 11 276.521 10.904 276.713 10.712C276.904 10.5207 277 10.2833 277 10C277 9.71667 276.904 9.479 276.713 9.287C276.521 9.09567 276.283 9 276 9C275.717 9 275.479 9.09567 275.287 9.287C275.096 9.479 275 9.71667 275 10C275 10.2833 275.096 10.5207 275.287 10.712C275.479 10.904 275.717 11 276 11ZM280 11C280.283 11 280.521 10.904 280.713 10.712C280.904 10.5207 281 10.2833 281 10C281 9.71667 280.904 9.479 280.713 9.287C280.521 9.09567 280.283 9 280 9C279.717 9 279.479 9.09567 279.288 9.287C279.096 9.479 279 9.71667 279 10C279 10.2833 279.096 10.5207 279.288 10.712C279.479 10.904 279.717 11 280 11ZM284 11C284.283 11 284.521 10.904 284.712 10.712C284.904 10.5207 285 10.2833 285 10C285 9.71667 284.904 9.479 284.712 9.287C284.521 9.09567 284.283 9 284 9C283.717 9 283.479 9.09567 283.288 9.287C283.096 9.479 283 9.71667 283 10C283 10.2833 283.096 10.5207 283.288 10.712C283.479 10.904 283.717 11 284 11ZM270 22V4C270 3.45 270.196 2.979 270.588 2.587C270.979 2.19567 271.45 2 272 2H288C288.55 2 289.021 2.19567 289.413 2.587C289.804 2.979 290 3.45 290 4V16C290 16.55 289.804 17.021 289.413 17.413C289.021 17.8043 288.55 18 288 18H274L270 22Z" fill="white"/>
<path d="M250.281 26.4688H251.377L254.172 33.4238L256.961 26.4688H258.062L254.594 35H253.738L250.281 26.4688ZM249.924 26.4688H250.891L251.049 31.6719V35H249.924V26.4688ZM257.447 26.4688H258.414V35H257.289V31.6719L257.447 26.4688ZM262.867 35.1172C262.426 35.1172 262.025 35.043 261.666 34.8945C261.311 34.7422 261.004 34.5293 260.746 34.2559C260.492 33.9824 260.297 33.6582 260.16 33.2832C260.023 32.9082 259.955 32.498 259.955 32.0527V31.8066C259.955 31.291 260.031 30.832 260.184 30.4297C260.336 30.0234 260.543 29.6797 260.805 29.3984C261.066 29.1172 261.363 28.9043 261.695 28.7598C262.027 28.6152 262.371 28.543 262.727 28.543C263.18 28.543 263.57 28.6211 263.898 28.7773C264.23 28.9336 264.502 29.1523 264.713 29.4336C264.924 29.7109 265.08 30.0391 265.182 30.418C265.283 30.793 265.334 31.2031 265.334 31.6484V32.1348H260.6V31.25H264.25V31.168C264.234 30.8867 264.176 30.6133 264.074 30.3477C263.977 30.082 263.82 29.8633 263.605 29.6914C263.391 29.5195 263.098 29.4336 262.727 29.4336C262.48 29.4336 262.254 29.4863 262.047 29.5918C261.84 29.6934 261.662 29.8457 261.514 30.0488C261.365 30.252 261.25 30.5 261.168 30.793C261.086 31.0859 261.045 31.4238 261.045 31.8066V32.0527C261.045 32.3535 261.086 32.6367 261.168 32.9023C261.254 33.1641 261.377 33.3945 261.537 33.5938C261.701 33.793 261.898 33.9492 262.129 34.0625C262.363 34.1758 262.629 34.2324 262.926 34.2324C263.309 34.2324 263.633 34.1543 263.898 33.998C264.164 33.8418 264.396 33.6328 264.596 33.3711L265.252 33.8926C265.115 34.0996 264.941 34.2969 264.73 34.4844C264.52 34.6719 264.26 34.8242 263.951 34.9414C263.646 35.0586 263.285 35.1172 262.867 35.1172ZM267.684 30.0137V35H266.6V28.6602H267.625L267.684 30.0137ZM267.426 31.5898L266.975 31.5723C266.979 31.1387 267.043 30.7383 267.168 30.3711C267.293 30 267.469 29.6777 267.695 29.4043C267.922 29.1309 268.191 28.9199 268.504 28.7715C268.82 28.6191 269.17 28.543 269.553 28.543C269.865 28.543 270.146 28.5859 270.396 28.6719C270.646 28.7539 270.859 28.8867 271.035 29.0703C271.215 29.2539 271.352 29.4922 271.445 29.7852C271.539 30.0742 271.586 30.4277 271.586 30.8457V35H270.496V30.834C270.496 30.502 270.447 30.2363 270.35 30.0371C270.252 29.834 270.109 29.6875 269.922 29.5977C269.734 29.5039 269.504 29.457 269.23 29.457C268.961 29.457 268.715 29.5137 268.492 29.627C268.273 29.7402 268.084 29.8965 267.924 30.0957C267.768 30.2949 267.645 30.5234 267.555 30.7812C267.469 31.0352 267.426 31.3047 267.426 31.5898ZM276.924 33.3184C276.924 33.1621 276.889 33.0176 276.818 32.8848C276.752 32.748 276.613 32.625 276.402 32.5156C276.195 32.4023 275.883 32.3047 275.465 32.2227C275.113 32.1484 274.795 32.0605 274.51 31.959C274.229 31.8574 273.988 31.7344 273.789 31.5898C273.594 31.4453 273.443 31.2754 273.338 31.0801C273.232 30.8848 273.18 30.6562 273.18 30.3945C273.18 30.1445 273.234 29.9082 273.344 29.6855C273.457 29.4629 273.615 29.2656 273.818 29.0938C274.025 28.9219 274.273 28.7871 274.562 28.6895C274.852 28.5918 275.174 28.543 275.529 28.543C276.037 28.543 276.471 28.6328 276.83 28.8125C277.189 28.9922 277.465 29.2324 277.656 29.5332C277.848 29.8301 277.943 30.1602 277.943 30.5234H276.859C276.859 30.3477 276.807 30.1777 276.701 30.0137C276.6 29.8457 276.449 29.707 276.25 29.5977C276.055 29.4883 275.814 29.4336 275.529 29.4336C275.229 29.4336 274.984 29.4805 274.797 29.5742C274.613 29.6641 274.479 29.7793 274.393 29.9199C274.311 30.0605 274.27 30.209 274.27 30.3652C274.27 30.4824 274.289 30.5879 274.328 30.6816C274.371 30.7715 274.445 30.8555 274.551 30.9336C274.656 31.0078 274.805 31.0781 274.996 31.1445C275.188 31.2109 275.432 31.2773 275.729 31.3438C276.248 31.4609 276.676 31.6016 277.012 31.7656C277.348 31.9297 277.598 32.1309 277.762 32.3691C277.926 32.6074 278.008 32.8965 278.008 33.2363C278.008 33.5137 277.949 33.7676 277.832 33.998C277.719 34.2285 277.553 34.4277 277.334 34.5957C277.119 34.7598 276.861 34.8887 276.561 34.9824C276.264 35.0723 275.93 35.1172 275.559 35.1172C275 35.1172 274.527 35.0176 274.141 34.8184C273.754 34.6191 273.461 34.3613 273.262 34.0449C273.062 33.7285 272.963 33.3945 272.963 33.043H274.053C274.068 33.3398 274.154 33.5762 274.311 33.752C274.467 33.9238 274.658 34.0469 274.885 34.1211C275.111 34.1914 275.336 34.2266 275.559 34.2266C275.855 34.2266 276.104 34.1875 276.303 34.1094C276.506 34.0312 276.66 33.9238 276.766 33.7871C276.871 33.6504 276.924 33.4941 276.924 33.3184ZM283.17 33.916V30.6523C283.17 30.4023 283.119 30.1855 283.018 30.002C282.92 29.8145 282.771 29.6699 282.572 29.5684C282.373 29.4668 282.127 29.416 281.834 29.416C281.561 29.416 281.32 29.4629 281.113 29.5566C280.91 29.6504 280.75 29.7734 280.633 29.9258C280.52 30.0781 280.463 30.2422 280.463 30.418H279.379C279.379 30.1914 279.438 29.9668 279.555 29.7441C279.672 29.5215 279.84 29.3203 280.059 29.1406C280.281 28.957 280.547 28.8125 280.855 28.707C281.168 28.5977 281.516 28.543 281.898 28.543C282.359 28.543 282.766 28.6211 283.117 28.7773C283.473 28.9336 283.75 29.1699 283.949 29.4863C284.152 29.7988 284.254 30.1914 284.254 30.6641V33.6172C284.254 33.8281 284.271 34.0527 284.307 34.291C284.346 34.5293 284.402 34.7344 284.477 34.9062V35H283.346C283.291 34.875 283.248 34.709 283.217 34.502C283.186 34.291 283.17 34.0957 283.17 33.916ZM283.357 31.1562L283.369 31.918H282.273C281.965 31.918 281.689 31.9434 281.447 31.9941C281.205 32.041 281.002 32.1133 280.838 32.2109C280.674 32.3086 280.549 32.4316 280.463 32.5801C280.377 32.7246 280.334 32.8945 280.334 33.0898C280.334 33.2891 280.379 33.4707 280.469 33.6348C280.559 33.7988 280.693 33.9297 280.873 34.0273C281.057 34.1211 281.281 34.168 281.547 34.168C281.879 34.168 282.172 34.0977 282.426 33.957C282.68 33.8164 282.881 33.6445 283.029 33.4414C283.182 33.2383 283.264 33.041 283.275 32.8496L283.738 33.3711C283.711 33.5352 283.637 33.7168 283.516 33.916C283.395 34.1152 283.232 34.3066 283.029 34.4902C282.83 34.6699 282.592 34.8203 282.314 34.9414C282.041 35.0586 281.732 35.1172 281.389 35.1172C280.959 35.1172 280.582 35.0332 280.258 34.8652C279.938 34.6973 279.688 34.4727 279.508 34.1914C279.332 33.9062 279.244 33.5879 279.244 33.2363C279.244 32.8965 279.311 32.5977 279.443 32.3398C279.576 32.0781 279.768 31.8613 280.018 31.6895C280.268 31.5137 280.568 31.3809 280.92 31.291C281.271 31.2012 281.664 31.1562 282.098 31.1562H283.357ZM290.066 28.6602H291.051V34.8652C291.051 35.4238 290.938 35.9004 290.711 36.2949C290.484 36.6895 290.168 36.9883 289.762 37.1914C289.359 37.3984 288.895 37.502 288.367 37.502C288.148 37.502 287.891 37.4668 287.594 37.3965C287.301 37.3301 287.012 37.2148 286.727 37.0508C286.445 36.8906 286.209 36.6738 286.018 36.4004L286.586 35.7559C286.852 36.0762 287.129 36.2988 287.418 36.4238C287.711 36.5488 288 36.6113 288.285 36.6113C288.629 36.6113 288.926 36.5469 289.176 36.418C289.426 36.2891 289.619 36.0977 289.756 35.8438C289.896 35.5938 289.967 35.2852 289.967 34.918V30.0547L290.066 28.6602ZM285.701 31.9004V31.7773C285.701 31.293 285.758 30.8535 285.871 30.459C285.988 30.0605 286.154 29.7188 286.369 29.4336C286.588 29.1484 286.852 28.9297 287.16 28.7773C287.469 28.6211 287.816 28.543 288.203 28.543C288.602 28.543 288.949 28.6133 289.246 28.7539C289.547 28.8906 289.801 29.0918 290.008 29.3574C290.219 29.6191 290.385 29.9355 290.506 30.3066C290.627 30.6777 290.711 31.0977 290.758 31.5664V32.1055C290.715 32.5703 290.631 32.9883 290.506 33.3594C290.385 33.7305 290.219 34.0469 290.008 34.3086C289.801 34.5703 289.547 34.7715 289.246 34.9121C288.945 35.0488 288.594 35.1172 288.191 35.1172C287.812 35.1172 287.469 35.0371 287.16 34.877C286.855 34.7168 286.594 34.4922 286.375 34.2031C286.156 33.9141 285.988 33.5742 285.871 33.1836C285.758 32.7891 285.701 32.3613 285.701 31.9004ZM286.785 31.7773V31.9004C286.785 32.2168 286.816 32.5137 286.879 32.791C286.945 33.0684 287.045 33.3125 287.178 33.5234C287.314 33.7344 287.488 33.9004 287.699 34.0215C287.91 34.1387 288.162 34.1973 288.455 34.1973C288.814 34.1973 289.111 34.1211 289.346 33.9688C289.58 33.8164 289.766 33.6152 289.902 33.3652C290.043 33.1152 290.152 32.8438 290.23 32.5508V31.1387C290.188 30.9238 290.121 30.7168 290.031 30.5176C289.945 30.3145 289.832 30.1348 289.691 29.9785C289.555 29.8184 289.385 29.6914 289.182 29.5977C288.979 29.5039 288.74 29.457 288.467 29.457C288.17 29.457 287.914 29.5195 287.699 29.6445C287.488 29.7656 287.314 29.9336 287.178 30.1484C287.045 30.3594 286.945 30.6055 286.879 30.8867C286.816 31.1641 286.785 31.4609 286.785 31.7773ZM295.328 35.1172C294.887 35.1172 294.486 35.043 294.127 34.8945C293.771 34.7422 293.465 34.5293 293.207 34.2559C292.953 33.9824 292.758 33.6582 292.621 33.2832C292.484 32.9082 292.416 32.498 292.416 32.0527V31.8066C292.416 31.291 292.492 30.832 292.645 30.4297C292.797 30.0234 293.004 29.6797 293.266 29.3984C293.527 29.1172 293.824 28.9043 294.156 28.7598C294.488 28.6152 294.832 28.543 295.188 28.543C295.641 28.543 296.031 28.6211 296.359 28.7773C296.691 28.9336 296.963 29.1523 297.174 29.4336C297.385 29.7109 297.541 30.0391 297.643 30.418C297.744 30.793 297.795 31.2031 297.795 31.6484V32.1348H293.061V31.25H296.711V31.168C296.695 30.8867 296.637 30.6133 296.535 30.3477C296.438 30.082 296.281 29.8633 296.066 29.6914C295.852 29.5195 295.559 29.4336 295.188 29.4336C294.941 29.4336 294.715 29.4863 294.508 29.5918C294.301 29.6934 294.123 29.8457 293.975 30.0488C293.826 30.252 293.711 30.5 293.629 30.793C293.547 31.0859 293.506 31.4238 293.506 31.8066V32.0527C293.506 32.3535 293.547 32.6367 293.629 32.9023C293.715 33.1641 293.838 33.3945 293.998 33.5938C294.162 33.793 294.359 33.9492 294.59 34.0625C294.824 34.1758 295.09 34.2324 295.387 34.2324C295.77 34.2324 296.094 34.1543 296.359 33.998C296.625 33.8418 296.857 33.6328 297.057 33.3711L297.713 33.8926C297.576 34.0996 297.402 34.2969 297.191 34.4844C296.98 34.6719 296.721 34.8242 296.412 34.9414C296.107 35.0586 295.746 35.1172 295.328 35.1172ZM300.145 30.0137V35H299.061V28.6602H300.086L300.145 30.0137ZM299.887 31.5898L299.436 31.5723C299.439 31.1387 299.504 30.7383 299.629 30.3711C299.754 30 299.93 29.6777 300.156 29.4043C300.383 29.1309 300.652 28.9199 300.965 28.7715C301.281 28.6191 301.631 28.543 302.014 28.543C302.326 28.543 302.607 28.5859 302.857 28.6719C303.107 28.7539 303.32 28.8867 303.496 29.0703C303.676 29.2539 303.812 29.4922 303.906 29.7852C304 30.0742 304.047 30.4277 304.047 30.8457V35H302.957V30.834C302.957 30.502 302.908 30.2363 302.811 30.0371C302.713 29.834 302.57 29.6875 302.383 29.5977C302.195 29.5039 301.965 29.457 301.691 29.457C301.422 29.457 301.176 29.5137 300.953 29.627C300.734 29.7402 300.545 29.8965 300.385 30.0957C300.229 30.2949 300.105 30.5234 300.016 30.7812C299.93 31.0352 299.887 31.3047 299.887 31.5898ZM309.385 33.3184C309.385 33.1621 309.35 33.0176 309.279 32.8848C309.213 32.748 309.074 32.625 308.863 32.5156C308.656 32.4023 308.344 32.3047 307.926 32.2227C307.574 32.1484 307.256 32.0605 306.971 31.959C306.689 31.8574 306.449 31.7344 306.25 31.5898C306.055 31.4453 305.904 31.2754 305.799 31.0801C305.693 30.8848 305.641 30.6562 305.641 30.3945C305.641 30.1445 305.695 29.9082 305.805 29.6855C305.918 29.4629 306.076 29.2656 306.279 29.0938C306.486 28.9219 306.734 28.7871 307.023 28.6895C307.312 28.5918 307.635 28.543 307.99 28.543C308.498 28.543 308.932 28.6328 309.291 28.8125C309.65 28.9922 309.926 29.2324 310.117 29.5332C310.309 29.8301 310.404 30.1602 310.404 30.5234H309.32C309.32 30.3477 309.268 30.1777 309.162 30.0137C309.061 29.8457 308.91 29.707 308.711 29.5977C308.516 29.4883 308.275 29.4336 307.99 29.4336C307.689 29.4336 307.445 29.4805 307.258 29.5742C307.074 29.6641 306.939 29.7793 306.854 29.9199C306.771 30.0605 306.73 30.209 306.73 30.3652C306.73 30.4824 306.75 30.5879 306.789 30.6816C306.832 30.7715 306.906 30.8555 307.012 30.9336C307.117 31.0078 307.266 31.0781 307.457 31.1445C307.648 31.2109 307.893 31.2773 308.189 31.3438C308.709 31.4609 309.137 31.6016 309.473 31.7656C309.809 31.9297 310.059 32.1309 310.223 32.3691C310.387 32.6074 310.469 32.8965 310.469 33.2363C310.469 33.5137 310.41 33.7676 310.293 33.998C310.18 34.2285 310.014 34.4277 309.795 34.5957C309.58 34.7598 309.322 34.8887 309.021 34.9824C308.725 35.0723 308.391 35.1172 308.02 35.1172C307.461 35.1172 306.988 35.0176 306.602 34.8184C306.215 34.6191 305.922 34.3613 305.723 34.0449C305.523 33.7285 305.424 33.3945 305.424 33.043H306.514C306.529 33.3398 306.615 33.5762 306.771 33.752C306.928 33.9238 307.119 34.0469 307.346 34.1211C307.572 34.1914 307.797 34.2266 308.02 34.2266C308.316 34.2266 308.564 34.1875 308.764 34.1094C308.967 34.0312 309.121 33.9238 309.227 33.7871C309.332 33.6504 309.385 33.4941 309.385 33.3184Z" fill="white" fill-opacity="0.9"/>
<path d="M187.062 33.7051L189.576 26.4688H190.801L187.643 35H186.77L187.062 33.7051ZM184.713 26.4688L187.203 33.7051L187.514 35H186.641L183.488 26.4688H184.713ZM195.254 33.916V30.6523C195.254 30.4023 195.203 30.1855 195.102 30.002C195.004 29.8145 194.855 29.6699 194.656 29.5684C194.457 29.4668 194.211 29.416 193.918 29.416C193.645 29.416 193.404 29.4629 193.197 29.5566C192.994 29.6504 192.834 29.7734 192.717 29.9258C192.604 30.0781 192.547 30.2422 192.547 30.418H191.463C191.463 30.1914 191.521 29.9668 191.639 29.7441C191.756 29.5215 191.924 29.3203 192.143 29.1406C192.365 28.957 192.631 28.8125 192.939 28.707C193.252 28.5977 193.6 28.543 193.982 28.543C194.443 28.543 194.85 28.6211 195.201 28.7773C195.557 28.9336 195.834 29.1699 196.033 29.4863C196.236 29.7988 196.338 30.1914 196.338 30.6641V33.6172C196.338 33.8281 196.355 34.0527 196.391 34.291C196.43 34.5293 196.486 34.7344 196.561 34.9062V35H195.43C195.375 34.875 195.332 34.709 195.301 34.502C195.27 34.291 195.254 34.0957 195.254 33.916ZM195.441 31.1562L195.453 31.918H194.357C194.049 31.918 193.773 31.9434 193.531 31.9941C193.289 32.041 193.086 32.1133 192.922 32.2109C192.758 32.3086 192.633 32.4316 192.547 32.5801C192.461 32.7246 192.418 32.8945 192.418 33.0898C192.418 33.2891 192.463 33.4707 192.553 33.6348C192.643 33.7988 192.777 33.9297 192.957 34.0273C193.141 34.1211 193.365 34.168 193.631 34.168C193.963 34.168 194.256 34.0977 194.51 33.957C194.764 33.8164 194.965 33.6445 195.113 33.4414C195.266 33.2383 195.348 33.041 195.359 32.8496L195.822 33.3711C195.795 33.5352 195.721 33.7168 195.6 33.916C195.479 34.1152 195.316 34.3066 195.113 34.4902C194.914 34.6699 194.676 34.8203 194.398 34.9414C194.125 35.0586 193.816 35.1172 193.473 35.1172C193.043 35.1172 192.666 35.0332 192.342 34.8652C192.021 34.6973 191.771 34.4727 191.592 34.1914C191.416 33.9062 191.328 33.5879 191.328 33.2363C191.328 32.8965 191.395 32.5977 191.527 32.3398C191.66 32.0781 191.852 31.8613 192.102 31.6895C192.352 31.5137 192.652 31.3809 193.004 31.291C193.355 31.2012 193.748 31.1562 194.182 31.1562H195.441ZM202.15 28.6602H203.135V34.8652C203.135 35.4238 203.021 35.9004 202.795 36.2949C202.568 36.6895 202.252 36.9883 201.846 37.1914C201.443 37.3984 200.979 37.502 200.451 37.502C200.232 37.502 199.975 37.4668 199.678 37.3965C199.385 37.3301 199.096 37.2148 198.811 37.0508C198.529 36.8906 198.293 36.6738 198.102 36.4004L198.67 35.7559C198.936 36.0762 199.213 36.2988 199.502 36.4238C199.795 36.5488 200.084 36.6113 200.369 36.6113C200.713 36.6113 201.01 36.5469 201.26 36.418C201.51 36.2891 201.703 36.0977 201.84 35.8438C201.98 35.5938 202.051 35.2852 202.051 34.918V30.0547L202.15 28.6602ZM197.785 31.9004V31.7773C197.785 31.293 197.842 30.8535 197.955 30.459C198.072 30.0605 198.238 29.7188 198.453 29.4336C198.672 29.1484 198.936 28.9297 199.244 28.7773C199.553 28.6211 199.9 28.543 200.287 28.543C200.686 28.543 201.033 28.6133 201.33 28.7539C201.631 28.8906 201.885 29.0918 202.092 29.3574C202.303 29.6191 202.469 29.9355 202.59 30.3066C202.711 30.6777 202.795 31.0977 202.842 31.5664V32.1055C202.799 32.5703 202.715 32.9883 202.59 33.3594C202.469 33.7305 202.303 34.0469 202.092 34.3086C201.885 34.5703 201.631 34.7715 201.33 34.9121C201.029 35.0488 200.678 35.1172 200.275 35.1172C199.896 35.1172 199.553 35.0371 199.244 34.877C198.939 34.7168 198.678 34.4922 198.459 34.2031C198.24 33.9141 198.072 33.5742 197.955 33.1836C197.842 32.7891 197.785 32.3613 197.785 31.9004ZM198.869 31.7773V31.9004C198.869 32.2168 198.9 32.5137 198.963 32.791C199.029 33.0684 199.129 33.3125 199.262 33.5234C199.398 33.7344 199.572 33.9004 199.783 34.0215C199.994 34.1387 200.246 34.1973 200.539 34.1973C200.898 34.1973 201.195 34.1211 201.43 33.9688C201.664 33.8164 201.85 33.6152 201.986 33.3652C202.127 33.1152 202.236 32.8438 202.314 32.5508V31.1387C202.271 30.9238 202.205 30.7168 202.115 30.5176C202.029 30.3145 201.916 30.1348 201.775 29.9785C201.639 29.8184 201.469 29.6914 201.266 29.5977C201.062 29.5039 200.824 29.457 200.551 29.457C200.254 29.457 199.998 29.5195 199.783 29.6445C199.572 29.7656 199.398 29.9336 199.262 30.1484C199.129 30.3594 199.029 30.6055 198.963 30.8867C198.9 31.1641 198.869 31.4609 198.869 31.7773ZM208.52 33.916V30.6523C208.52 30.4023 208.469 30.1855 208.367 30.002C208.27 29.8145 208.121 29.6699 207.922 29.5684C207.723 29.4668 207.477 29.416 207.184 29.416C206.91 29.416 206.67 29.4629 206.463 29.5566C206.26 29.6504 206.1 29.7734 205.982 29.9258C205.869 30.0781 205.812 30.2422 205.812 30.418H204.729C204.729 30.1914 204.787 29.9668 204.904 29.7441C205.021 29.5215 205.189 29.3203 205.408 29.1406C205.631 28.957 205.896 28.8125 206.205 28.707C206.518 28.5977 206.865 28.543 207.248 28.543C207.709 28.543 208.115 28.6211 208.467 28.7773C208.822 28.9336 209.1 29.1699 209.299 29.4863C209.502 29.7988 209.604 30.1914 209.604 30.6641V33.6172C209.604 33.8281 209.621 34.0527 209.656 34.291C209.695 34.5293 209.752 34.7344 209.826 34.9062V35H208.695C208.641 34.875 208.598 34.709 208.566 34.502C208.535 34.291 208.52 34.0957 208.52 33.916ZM208.707 31.1562L208.719 31.918H207.623C207.314 31.918 207.039 31.9434 206.797 31.9941C206.555 32.041 206.352 32.1133 206.188 32.2109C206.023 32.3086 205.898 32.4316 205.812 32.5801C205.727 32.7246 205.684 32.8945 205.684 33.0898C205.684 33.2891 205.729 33.4707 205.818 33.6348C205.908 33.7988 206.043 33.9297 206.223 34.0273C206.406 34.1211 206.631 34.168 206.896 34.168C207.229 34.168 207.521 34.0977 207.775 33.957C208.029 33.8164 208.23 33.6445 208.379 33.4414C208.531 33.2383 208.613 33.041 208.625 32.8496L209.088 33.3711C209.061 33.5352 208.986 33.7168 208.865 33.916C208.744 34.1152 208.582 34.3066 208.379 34.4902C208.18 34.6699 207.941 34.8203 207.664 34.9414C207.391 35.0586 207.082 35.1172 206.738 35.1172C206.309 35.1172 205.932 35.0332 205.607 34.8652C205.287 34.6973 205.037 34.4727 204.857 34.1914C204.682 33.9062 204.594 33.5879 204.594 33.2363C204.594 32.8965 204.66 32.5977 204.793 32.3398C204.926 32.0781 205.117 31.8613 205.367 31.6895C205.617 31.5137 205.918 31.3809 206.27 31.291C206.621 31.2012 207.014 31.1562 207.447 31.1562H208.707ZM215 33.3184C215 33.1621 214.965 33.0176 214.895 32.8848C214.828 32.748 214.689 32.625 214.479 32.5156C214.271 32.4023 213.959 32.3047 213.541 32.2227C213.189 32.1484 212.871 32.0605 212.586 31.959C212.305 31.8574 212.064 31.7344 211.865 31.5898C211.67 31.4453 211.52 31.2754 211.414 31.0801C211.309 30.8848 211.256 30.6562 211.256 30.3945C211.256 30.1445 211.311 29.9082 211.42 29.6855C211.533 29.4629 211.691 29.2656 211.895 29.0938C212.102 28.9219 212.35 28.7871 212.639 28.6895C212.928 28.5918 213.25 28.543 213.605 28.543C214.113 28.543 214.547 28.6328 214.906 28.8125C215.266 28.9922 215.541 29.2324 215.732 29.5332C215.924 29.8301 216.02 30.1602 216.02 30.5234H214.936C214.936 30.3477 214.883 30.1777 214.777 30.0137C214.676 29.8457 214.525 29.707 214.326 29.5977C214.131 29.4883 213.891 29.4336 213.605 29.4336C213.305 29.4336 213.061 29.4805 212.873 29.5742C212.689 29.6641 212.555 29.7793 212.469 29.9199C212.387 30.0605 212.346 30.209 212.346 30.3652C212.346 30.4824 212.365 30.5879 212.404 30.6816C212.447 30.7715 212.521 30.8555 212.627 30.9336C212.732 31.0078 212.881 31.0781 213.072 31.1445C213.264 31.2109 213.508 31.2773 213.805 31.3438C214.324 31.4609 214.752 31.6016 215.088 31.7656C215.424 31.9297 215.674 32.1309 215.838 32.3691C216.002 32.6074 216.084 32.8965 216.084 33.2363C216.084 33.5137 216.025 33.7676 215.908 33.998C215.795 34.2285 215.629 34.4277 215.41 34.5957C215.195 34.7598 214.938 34.8887 214.637 34.9824C214.34 35.0723 214.006 35.1172 213.635 35.1172C213.076 35.1172 212.604 35.0176 212.217 34.8184C211.83 34.6191 211.537 34.3613 211.338 34.0449C211.139 33.7285 211.039 33.3945 211.039 33.043H212.129C212.145 33.3398 212.23 33.5762 212.387 33.752C212.543 33.9238 212.734 34.0469 212.961 34.1211C213.188 34.1914 213.412 34.2266 213.635 34.2266C213.932 34.2266 214.18 34.1875 214.379 34.1094C214.582 34.0312 214.736 33.9238 214.842 33.7871C214.947 33.6504 215 33.4941 215 33.3184Z" fill="white" fill-opacity="0.9"/>
<path d="M196 6V4C196 3.45 196.196 2.979 196.588 2.587C196.979 2.19567 197.45 2 198 2H202C202.55 2 203.021 2.19567 203.413 2.587C203.804 2.979 204 3.45 204 4V6H208C208.55 6 209.021 6.196 209.413 6.588C209.804 6.97933 210 7.45 210 8V13H203V11H197V13H190V8C190 7.45 190.196 6.97933 190.588 6.588C190.979 6.196 191.45 6 192 6H196ZM198 6H202V4H198V6ZM199 15V13H201V15H199ZM190 15H197V17H203V15H210V19C210 19.55 209.804 20.021 209.413 20.413C209.021 20.8043 208.55 21 208 21H192C191.45 21 190.979 20.8043 190.588 20.413C190.196 20.021 190 19.55 190 19V15Z" fill="white"/>
<path d="M109 20V17.2C109 16.6333 109.146 16.1123 109.438 15.637C109.729 15.1623 110.117 14.8 110.6 14.55C111.633 14.0333 112.683 13.6457 113.75 13.387C114.817 13.129 115.9 13 117 13C118.1 13 119.183 13.129 120.25 13.387C121.317 13.6457 122.367 14.0333 123.4 14.55C123.883 14.8 124.271 15.1623 124.562 15.637C124.854 16.1123 125 16.6333 125 17.2V20H109ZM117 12C115.9 12 114.958 11.6083 114.175 10.825C113.392 10.0417 113 9.1 113 8C113 6.9 113.392 5.95833 114.175 5.175C114.958 4.39167 115.9 4 117 4C118.1 4 119.042 4.39167 119.825 5.175C120.608 5.95833 121 6.9 121 8C121 9.1 120.608 10.0417 119.825 10.825C119.042 11.6083 118.1 12 117 12ZM127 8C127 9.1 126.608 10.0417 125.825 10.825C125.042 11.6083 124.1 12 123 12C122.817 12 122.583 11.9793 122.3 11.938C122.017 11.896 121.783 11.85 121.6 11.8C122.05 11.2667 122.396 10.675 122.637 10.025C122.879 9.375 123 8.7 123 8C123 7.3 122.879 6.625 122.637 5.975C122.396 5.325 122.05 4.73333 121.6 4.2C121.833 4.11667 122.067 4.06233 122.3 4.037C122.533 4.01233 122.767 4 123 4C124.1 4 125.042 4.39167 125.825 5.175C126.608 5.95833 127 6.9 127 8ZM127 20V17C127 16.2667 126.796 15.5623 126.388 14.887C125.979 14.2123 125.4 13.6333 124.65 13.15C125.5 13.25 126.3 13.4207 127.05 13.662C127.8 13.904 128.5 14.2 129.15 14.55C129.75 14.8833 130.208 15.254 130.525 15.662C130.842 16.0707 131 16.5167 131 17V20H127Z" fill="white"/>
<path d="M91.5527 26.4688H92.6484L95.4434 33.4238L98.2324 26.4688H99.334L95.8652 35H95.0098L91.5527 26.4688ZM91.1953 26.4688H92.1621L92.3203 31.6719V35H91.1953V26.4688ZM98.7188 26.4688H99.6855V35H98.5605V31.6719L98.7188 26.4688ZM102.686 28.6602V35H101.596V28.6602H102.686ZM101.514 26.9785C101.514 26.8027 101.566 26.6543 101.672 26.5332C101.781 26.4121 101.941 26.3516 102.152 26.3516C102.359 26.3516 102.518 26.4121 102.627 26.5332C102.74 26.6543 102.797 26.8027 102.797 26.9785C102.797 27.1465 102.74 27.291 102.627 27.4121C102.518 27.5293 102.359 27.5879 102.152 27.5879C101.941 27.5879 101.781 27.5293 101.672 27.4121C101.566 27.291 101.514 27.1465 101.514 26.9785ZM105.51 30.0137V35H104.426V28.6602H105.451L105.51 30.0137ZM105.252 31.5898L104.801 31.5723C104.805 31.1387 104.869 30.7383 104.994 30.3711C105.119 30 105.295 29.6777 105.521 29.4043C105.748 29.1309 106.018 28.9199 106.33 28.7715C106.646 28.6191 106.996 28.543 107.379 28.543C107.691 28.543 107.973 28.5859 108.223 28.6719C108.473 28.7539 108.686 28.8867 108.861 29.0703C109.041 29.2539 109.178 29.4922 109.271 29.7852C109.365 30.0742 109.412 30.4277 109.412 30.8457V35H108.322V30.834C108.322 30.502 108.273 30.2363 108.176 30.0371C108.078 29.834 107.936 29.6875 107.748 29.5977C107.561 29.5039 107.33 29.457 107.057 29.457C106.787 29.457 106.541 29.5137 106.318 29.627C106.1 29.7402 105.91 29.8965 105.75 30.0957C105.594 30.2949 105.471 30.5234 105.381 30.7812C105.295 31.0352 105.252 31.3047 105.252 31.5898ZM112.143 26V35H111.059V26H112.143ZM111.885 31.5898L111.434 31.5723C111.438 31.1387 111.502 30.7383 111.627 30.3711C111.752 30 111.928 29.6777 112.154 29.4043C112.381 29.1309 112.65 28.9199 112.963 28.7715C113.279 28.6191 113.629 28.543 114.012 28.543C114.324 28.543 114.605 28.5859 114.855 28.6719C115.105 28.7539 115.318 28.8867 115.494 29.0703C115.674 29.2539 115.811 29.4922 115.904 29.7852C115.998 30.0742 116.045 30.4277 116.045 30.8457V35H114.955V30.834C114.955 30.502 114.906 30.2363 114.809 30.0371C114.711 29.834 114.568 29.6875 114.381 29.5977C114.193 29.5039 113.963 29.457 113.689 29.457C113.42 29.457 113.174 29.5137 112.951 29.627C112.732 29.7402 112.543 29.8965 112.383 30.0957C112.227 30.2949 112.104 30.5234 112.014 30.7812C111.928 31.0352 111.885 31.3047 111.885 31.5898ZM121.406 33.916V30.6523C121.406 30.4023 121.355 30.1855 121.254 30.002C121.156 29.8145 121.008 29.6699 120.809 29.5684C120.609 29.4668 120.363 29.416 120.07 29.416C119.797 29.416 119.557 29.4629 119.35 29.5566C119.146 29.6504 118.986 29.7734 118.869 29.9258C118.756 30.0781 118.699 30.2422 118.699 30.418H117.615C117.615 30.1914 117.674 29.9668 117.791 29.7441C117.908 29.5215 118.076 29.3203 118.295 29.1406C118.518 28.957 118.783 28.8125 119.092 28.707C119.404 28.5977 119.752 28.543 120.135 28.543C120.596 28.543 121.002 28.6211 121.354 28.7773C121.709 28.9336 121.986 29.1699 122.186 29.4863C122.389 29.7988 122.49 30.1914 122.49 30.6641V33.6172C122.49 33.8281 122.508 34.0527 122.543 34.291C122.582 34.5293 122.639 34.7344 122.713 34.9062V35H121.582C121.527 34.875 121.484 34.709 121.453 34.502C121.422 34.291 121.406 34.0957 121.406 33.916ZM121.594 31.1562L121.605 31.918H120.51C120.201 31.918 119.926 31.9434 119.684 31.9941C119.441 32.041 119.238 32.1133 119.074 32.2109C118.91 32.3086 118.785 32.4316 118.699 32.5801C118.613 32.7246 118.57 32.8945 118.57 33.0898C118.57 33.2891 118.615 33.4707 118.705 33.6348C118.795 33.7988 118.93 33.9297 119.109 34.0273C119.293 34.1211 119.518 34.168 119.783 34.168C120.115 34.168 120.408 34.0977 120.662 33.957C120.916 33.8164 121.117 33.6445 121.266 33.4414C121.418 33.2383 121.5 33.041 121.512 32.8496L121.975 33.3711C121.947 33.5352 121.873 33.7168 121.752 33.916C121.631 34.1152 121.469 34.3066 121.266 34.4902C121.066 34.6699 120.828 34.8203 120.551 34.9414C120.277 35.0586 119.969 35.1172 119.625 35.1172C119.195 35.1172 118.818 35.0332 118.494 34.8652C118.174 34.6973 117.924 34.4727 117.744 34.1914C117.568 33.9062 117.48 33.5879 117.48 33.2363C117.48 32.8965 117.547 32.5977 117.68 32.3398C117.812 32.0781 118.004 31.8613 118.254 31.6895C118.504 31.5137 118.805 31.3809 119.156 31.291C119.508 31.2012 119.9 31.1562 120.334 31.1562H121.594ZM128.256 29.6562V35H127.172V28.6602H128.227L128.256 29.6562ZM130.236 28.625L130.23 29.6328C130.141 29.6133 130.055 29.6016 129.973 29.5977C129.895 29.5898 129.805 29.5859 129.703 29.5859C129.453 29.5859 129.232 29.625 129.041 29.7031C128.85 29.7812 128.688 29.8906 128.555 30.0312C128.422 30.1719 128.316 30.3398 128.238 30.5352C128.164 30.7266 128.115 30.9375 128.092 31.168L127.787 31.3438C127.787 30.9609 127.824 30.6016 127.898 30.2656C127.977 29.9297 128.096 29.6328 128.256 29.375C128.416 29.1133 128.619 28.9102 128.865 28.7656C129.115 28.6172 129.412 28.543 129.756 28.543C129.834 28.543 129.924 28.5527 130.025 28.5723C130.127 28.5879 130.197 28.6055 130.236 28.625ZM133.752 35.1172C133.311 35.1172 132.91 35.043 132.551 34.8945C132.195 34.7422 131.889 34.5293 131.631 34.2559C131.377 33.9824 131.182 33.6582 131.045 33.2832C130.908 32.9082 130.84 32.498 130.84 32.0527V31.8066C130.84 31.291 130.916 30.832 131.068 30.4297C131.221 30.0234 131.428 29.6797 131.689 29.3984C131.951 29.1172 132.248 28.9043 132.58 28.7598C132.912 28.6152 133.256 28.543 133.611 28.543C134.064 28.543 134.455 28.6211 134.783 28.7773C135.115 28.9336 135.387 29.1523 135.598 29.4336C135.809 29.7109 135.965 30.0391 136.066 30.418C136.168 30.793 136.219 31.2031 136.219 31.6484V32.1348H131.484V31.25H135.135V31.168C135.119 30.8867 135.061 30.6133 134.959 30.3477C134.861 30.082 134.705 29.8633 134.49 29.6914C134.275 29.5195 133.982 29.4336 133.611 29.4336C133.365 29.4336 133.139 29.4863 132.932 29.5918C132.725 29.6934 132.547 29.8457 132.398 30.0488C132.25 30.252 132.135 30.5 132.053 30.793C131.971 31.0859 131.93 31.4238 131.93 31.8066V32.0527C131.93 32.3535 131.971 32.6367 132.053 32.9023C132.139 33.1641 132.262 33.3945 132.422 33.5938C132.586 33.793 132.783 33.9492 133.014 34.0625C133.248 34.1758 133.514 34.2324 133.811 34.2324C134.193 34.2324 134.518 34.1543 134.783 33.998C135.049 33.8418 135.281 33.6328 135.48 33.3711L136.137 33.8926C136 34.0996 135.826 34.2969 135.615 34.4844C135.404 34.6719 135.145 34.8242 134.836 34.9414C134.531 35.0586 134.17 35.1172 133.752 35.1172ZM141.48 33.7695V26H142.57V35H141.574L141.48 33.7695ZM137.215 31.9004V31.7773C137.215 31.293 137.273 30.8535 137.391 30.459C137.512 30.0605 137.682 29.7188 137.9 29.4336C138.123 29.1484 138.387 28.9297 138.691 28.7773C139 28.6211 139.344 28.543 139.723 28.543C140.121 28.543 140.469 28.6133 140.766 28.7539C141.066 28.8906 141.32 29.0918 141.527 29.3574C141.738 29.6191 141.904 29.9355 142.025 30.3066C142.146 30.6777 142.23 31.0977 142.277 31.5664V32.1055C142.234 32.5703 142.15 32.9883 142.025 33.3594C141.904 33.7305 141.738 34.0469 141.527 34.3086C141.32 34.5703 141.066 34.7715 140.766 34.9121C140.465 35.0488 140.113 35.1172 139.711 35.1172C139.34 35.1172 139 35.0371 138.691 34.877C138.387 34.7168 138.123 34.4922 137.9 34.2031C137.682 33.9141 137.512 33.5742 137.391 33.1836C137.273 32.7891 137.215 32.3613 137.215 31.9004ZM138.305 31.7773V31.9004C138.305 32.2168 138.336 32.5137 138.398 32.791C138.465 33.0684 138.566 33.3125 138.703 33.5234C138.84 33.7344 139.014 33.9004 139.225 34.0215C139.436 34.1387 139.688 34.1973 139.98 34.1973C140.34 34.1973 140.635 34.1211 140.865 33.9688C141.1 33.8164 141.287 33.6152 141.428 33.3652C141.568 33.1152 141.678 32.8438 141.756 32.5508V31.1387C141.709 30.9238 141.641 30.7168 141.551 30.5176C141.465 30.3145 141.352 30.1348 141.211 29.9785C141.074 29.8184 140.904 29.6914 140.701 29.5977C140.502 29.5039 140.266 29.457 139.992 29.457C139.695 29.457 139.439 29.5195 139.225 29.6445C139.014 29.7656 138.84 29.9336 138.703 30.1484C138.566 30.3594 138.465 30.6055 138.398 30.8867C138.336 31.1641 138.305 31.4609 138.305 31.7773ZM146.889 35.1172C146.447 35.1172 146.047 35.043 145.688 34.8945C145.332 34.7422 145.025 34.5293 144.768 34.2559C144.514 33.9824 144.318 33.6582 144.182 33.2832C144.045 32.9082 143.977 32.498 143.977 32.0527V31.8066C143.977 31.291 144.053 30.832 144.205 30.4297C144.357 30.0234 144.564 29.6797 144.826 29.3984C145.088 29.1172 145.385 28.9043 145.717 28.7598C146.049 28.6152 146.393 28.543 146.748 28.543C147.201 28.543 147.592 28.6211 147.92 28.7773C148.252 28.9336 148.523 29.1523 148.734 29.4336C148.945 29.7109 149.102 30.0391 149.203 30.418C149.305 30.793 149.355 31.2031 149.355 31.6484V32.1348H144.621V31.25H148.271V31.168C148.256 30.8867 148.197 30.6133 148.096 30.3477C147.998 30.082 147.842 29.8633 147.627 29.6914C147.412 29.5195 147.119 29.4336 146.748 29.4336C146.502 29.4336 146.275 29.4863 146.068 29.5918C145.861 29.6934 145.684 29.8457 145.535 30.0488C145.387 30.252 145.271 30.5 145.189 30.793C145.107 31.0859 145.066 31.4238 145.066 31.8066V32.0527C145.066 32.3535 145.107 32.6367 145.189 32.9023C145.275 33.1641 145.398 33.3945 145.559 33.5938C145.723 33.793 145.92 33.9492 146.15 34.0625C146.385 34.1758 146.65 34.2324 146.947 34.2324C147.33 34.2324 147.654 34.1543 147.92 33.998C148.186 33.8418 148.418 33.6328 148.617 33.3711L149.273 33.8926C149.137 34.0996 148.963 34.2969 148.752 34.4844C148.541 34.6719 148.281 34.8242 147.973 34.9414C147.668 35.0586 147.307 35.1172 146.889 35.1172Z" fill="white" fill-opacity="0.9"/>
<path d="M32 21V9L40.05 3L48 9V21H42.15V13.875H37.825V21H32Z" fill="white"/>
<path d="M27.7422 26.4688V35H26.6113V26.4688H27.7422ZM30.7188 30.0137V35H29.6348V28.6602H30.6602L30.7188 30.0137ZM30.4609 31.5898L30.0098 31.5723C30.0137 31.1387 30.0781 30.7383 30.2031 30.3711C30.3281 30 30.5039 29.6777 30.7305 29.4043C30.957 29.1309 31.2266 28.9199 31.5391 28.7715C31.8555 28.6191 32.2051 28.543 32.5879 28.543C32.9004 28.543 33.1816 28.5859 33.4316 28.6719C33.6816 28.7539 33.8945 28.8867 34.0703 29.0703C34.25 29.2539 34.3867 29.4922 34.4805 29.7852C34.5742 30.0742 34.6211 30.4277 34.6211 30.8457V35H33.5312V30.834C33.5312 30.502 33.4824 30.2363 33.3848 30.0371C33.2871 29.834 33.1445 29.6875 32.957 29.5977C32.7695 29.5039 32.5391 29.457 32.2656 29.457C31.9961 29.457 31.75 29.5137 31.5273 29.627C31.3086 29.7402 31.1191 29.8965 30.959 30.0957C30.8027 30.2949 30.6797 30.5234 30.5898 30.7812C30.5039 31.0352 30.4609 31.3047 30.4609 31.5898ZM37.4395 28.6602V35H36.3555V28.6602H37.4395ZM36.3203 27.7344L37.457 26.0117H38.7637L37.1934 27.7344H36.3203ZM41.7812 34.2266C42.0391 34.2266 42.2773 34.1738 42.4961 34.0684C42.7148 33.9629 42.8945 33.8184 43.0352 33.6348C43.1758 33.4473 43.2559 33.2344 43.2754 32.9961H44.3066C44.2871 33.3711 44.1602 33.7207 43.9258 34.0449C43.6953 34.3652 43.3926 34.625 43.0176 34.8242C42.6426 35.0195 42.2305 35.1172 41.7812 35.1172C41.3047 35.1172 40.8887 35.0332 40.5332 34.8652C40.1816 34.6973 39.8887 34.4668 39.6543 34.1738C39.4238 33.8809 39.25 33.5449 39.1328 33.166C39.0195 32.7832 38.9629 32.3789 38.9629 31.9531V31.707C38.9629 31.2812 39.0195 30.8789 39.1328 30.5C39.25 30.1172 39.4238 29.7793 39.6543 29.4863C39.8887 29.1934 40.1816 28.9629 40.5332 28.7949C40.8887 28.627 41.3047 28.543 41.7812 28.543C42.2773 28.543 42.7109 28.6445 43.082 28.8477C43.4531 29.0469 43.7441 29.3203 43.9551 29.668C44.1699 30.0117 44.2871 30.4023 44.3066 30.8398H43.2754C43.2559 30.5781 43.1816 30.3418 43.0527 30.1309C42.9277 29.9199 42.7559 29.752 42.5371 29.627C42.3223 29.498 42.0703 29.4336 41.7812 29.4336C41.4492 29.4336 41.1699 29.5 40.9434 29.6328C40.7207 29.7617 40.543 29.9375 40.4102 30.1602C40.2812 30.3789 40.1875 30.623 40.1289 30.8926C40.0742 31.1582 40.0469 31.4297 40.0469 31.707V31.9531C40.0469 32.2305 40.0742 32.5039 40.1289 32.7734C40.1836 33.043 40.2754 33.2871 40.4043 33.5059C40.5371 33.7246 40.7148 33.9004 40.9375 34.0332C41.1641 34.1621 41.4453 34.2266 41.7812 34.2266ZM46.7031 28.6602V35H45.6133V28.6602H46.7031ZM45.5312 26.9785C45.5312 26.8027 45.584 26.6543 45.6895 26.5332C45.7988 26.4121 45.959 26.3516 46.1699 26.3516C46.377 26.3516 46.5352 26.4121 46.6445 26.5332C46.7578 26.6543 46.8145 26.8027 46.8145 26.9785C46.8145 27.1465 46.7578 27.291 46.6445 27.4121C46.5352 27.5293 46.377 27.5879 46.1699 27.5879C45.959 27.5879 45.7988 27.5293 45.6895 27.4121C45.584 27.291 45.5312 27.1465 45.5312 26.9785ZM48.1562 31.9004V31.7656C48.1562 31.3086 48.2227 30.8848 48.3555 30.4941C48.4883 30.0996 48.6797 29.7578 48.9297 29.4688C49.1797 29.1758 49.4824 28.9492 49.8379 28.7891C50.1934 28.625 50.5918 28.543 51.0332 28.543C51.4785 28.543 51.8789 28.625 52.2344 28.7891C52.5938 28.9492 52.8984 29.1758 53.1484 29.4688C53.4023 29.7578 53.5957 30.0996 53.7285 30.4941C53.8613 30.8848 53.9277 31.3086 53.9277 31.7656V31.9004C53.9277 32.3574 53.8613 32.7812 53.7285 33.1719C53.5957 33.5625 53.4023 33.9043 53.1484 34.1973C52.8984 34.4863 52.5957 34.7129 52.2402 34.877C51.8887 35.0371 51.4902 35.1172 51.0449 35.1172C50.5996 35.1172 50.1992 35.0371 49.8438 34.877C49.4883 34.7129 49.1836 34.4863 48.9297 34.1973C48.6797 33.9043 48.4883 33.5625 48.3555 33.1719C48.2227 32.7812 48.1562 32.3574 48.1562 31.9004ZM49.2402 31.7656V31.9004C49.2402 32.2168 49.2773 32.5156 49.3516 32.7969C49.4258 33.0742 49.5371 33.3203 49.6855 33.5352C49.8379 33.75 50.0273 33.9199 50.2539 34.0449C50.4805 34.166 50.7441 34.2266 51.0449 34.2266C51.3418 34.2266 51.6016 34.166 51.8242 34.0449C52.0508 33.9199 52.2383 33.75 52.3867 33.5352C52.5352 33.3203 52.6465 33.0742 52.7207 32.7969C52.7988 32.5156 52.8379 32.2168 52.8379 31.9004V31.7656C52.8379 31.4531 52.7988 31.1582 52.7207 30.8809C52.6465 30.5996 52.5332 30.3516 52.3809 30.1367C52.2324 29.918 52.0449 29.7461 51.8184 29.6211C51.5957 29.4961 51.334 29.4336 51.0332 29.4336C50.7363 29.4336 50.4746 29.4961 50.248 29.6211C50.0254 29.7461 49.8379 29.918 49.6855 30.1367C49.5371 30.3516 49.4258 30.5996 49.3516 30.8809C49.2773 31.1582 49.2402 31.4531 49.2402 31.7656Z" fill="white" fill-opacity="0.9"/>
</svg>
